<svg width="180" height="22" viewBox="0 0 180 22" fill="none" xmlns="http://www.w3.org/2000/svg">
<rect width="80" height="2" transform="translate(0 10)" fill="#D7D9E4"/>
<rect width="80" height="2" transform="translate(79 10)" fill="#D7D9E4"/>
<rect x="159" y="1" width="20" height="20" rx="10" fill="white"/>
<rect x="159" y="1" width="20" height="20" rx="10" stroke="#D7D9E4" stroke-width="2"/>
<path d="M168.516 17.16C167.727 17.16 167.039 16.9787 166.452 16.616C165.876 16.2533 165.332 15.6453 164.82 14.792L166.164 13.944C166.431 14.3387 166.692 14.664 166.948 14.92C167.215 15.1653 167.487 15.3467 167.764 15.464C168.041 15.5813 168.335 15.64 168.644 15.64C169.017 15.64 169.364 15.5493 169.684 15.368C170.004 15.176 170.26 14.9147 170.452 14.584C170.644 14.2533 170.74 13.88 170.74 13.464C170.74 13.048 170.665 12.696 170.516 12.408C170.367 12.1093 170.148 11.8853 169.86 11.736C169.572 11.576 169.231 11.496 168.836 11.496C168.655 11.496 168.463 11.5173 168.26 11.56C168.068 11.592 167.86 11.6453 167.636 11.72C167.412 11.784 167.167 11.8693 166.9 11.976L166.42 10.712L169.876 6.904L170.212 7.4H165.444V5.8H171.86L172.18 6.44L168.516 10.504L168.116 10.088C168.201 10.0453 168.34 10.008 168.532 9.976C168.735 9.93333 168.9 9.912 169.028 9.912C169.497 9.912 169.935 10.0027 170.34 10.184C170.756 10.3547 171.113 10.6 171.412 10.92C171.721 11.2293 171.961 11.5973 172.132 12.024C172.313 12.44 172.404 12.888 172.404 13.368C172.404 14.0933 172.228 14.744 171.876 15.32C171.535 15.8853 171.071 16.3333 170.484 16.664C169.897 16.9947 169.241 17.16 168.516 17.16Z" fill="#D7D9E4"/>
<rect x="80" y="1" width="20" height="20" rx="10" fill="white"/>
<rect x="80" y="1" width="20" height="20" rx="10" stroke="#D7D9E4" stroke-width="2"/>
<path d="M86.988 17L86.46 15.688L89.884 11.832C90.0653 11.64 90.252 11.4213 90.444 11.176C90.6467 10.92 90.8387 10.6587 91.02 10.392C91.2013 10.1253 91.3453 9.864 91.452 9.608C91.5693 9.34133 91.628 9.09067 91.628 8.856C91.628 8.51467 91.5587 8.22667 91.42 7.992C91.292 7.74667 91.1 7.56 90.844 7.432C90.5987 7.304 90.3 7.24 89.948 7.24C89.6387 7.24 89.3347 7.33067 89.036 7.512C88.7373 7.69333 88.4653 7.94933 88.22 8.28C87.9747 8.61067 87.7827 8.99467 87.644 9.432L86.316 8.6C86.4973 7.98133 86.7693 7.45333 87.132 7.016C87.5053 6.568 87.948 6.22667 88.46 5.992C88.9827 5.75733 89.548 5.64 90.156 5.64C90.7853 5.64 91.3453 5.77333 91.836 6.04C92.3267 6.296 92.7107 6.65867 92.988 7.128C93.2653 7.58667 93.404 8.12 93.404 8.728C93.404 9.03733 93.3613 9.35733 93.276 9.688C93.1907 10.008 93.052 10.344 92.86 10.696C92.6787 11.048 92.444 11.4213 92.156 11.816C91.868 12.2 91.5213 12.6107 91.116 13.048L88.572 15.816L88.252 15.336H93.756V17H86.988Z" fill="#D7D9E4"/>
<rect x="1" y="1" width="20" height="20" rx="10" fill="white"/>
<rect x="1" y="1" width="20" height="20" rx="10" stroke="url(#paint0_linear_14_955)" stroke-width="2"/>
<path d="M10.472 16.216V7.128L11.064 7.576L8.856 8.744L8.392 7.24L11.384 5.64H12.216V16.216H10.472ZM8.696 17V15.336H14.04V17H8.696Z" fill="url(#paint1_linear_14_955)"/>
<defs>
<linearGradient id="paint0_linear_14_955" x1="0" y1="11" x2="22" y2="11" gradientUnits="userSpaceOnUse">
<stop stop-color="#5ABEAA"/>
<stop offset="1" stop-color="#5AAFBE"/>
</linearGradient>
<linearGradient id="paint1_linear_14_955" x1="7" y1="11" x2="15" y2="11" gradientUnits="userSpaceOnUse">
<stop stop-color="#5ABEAA"/>
<stop offset="1" stop-color="#5AAFBE"/>
</linearGradient>
</defs>
</svg>
